Patient4_TMGait_0pt5_01_right_09_EMG.mot
version=1
nRows=29
nColumns=33
inDegrees=no
endheader
time	1LAddLong	2LGlutMax	3LGlutMed	4LIliopsoas	5LSemiMemb	6LBicFemLong	7LRecFem	8LVastMed	9LVastLat	10LGasMed	11LTibAnt	12lTibPost	13LPeroneusLong	14LSol	15LExtDigLong	16LFlexDigLong	17RAddLong	18RGlutMax	19RGlutMed	20RIliopsoas	21RSemiMemb	22RBicFemLong	23RRecFem	24RVastMed	25RVastLat	26RGasMed	27RTibAnt	28RTibPost	29RPeroneusLong	30RSol	31RExtDigLong	32RFlexDigLong
12.88	0.009308	-0.058289	-0.006561	-0.000305	-0.009613	-0.17853	0.12375	-0.000458	-0.053253	-0.066833	-0.000153	0.005798	0.054626	0.27191	-0.28244	-0.006409	0.056458	-0.12177	0.14847	-0.1416	-0.031433	0.007324	0.15671	-0.002899	-0.007782	-0.004883	0.13397	-0.004883	-0.041351	0.024261	0.00351	0.002899
12.881	0.02243	-0.063629	0.030365	0.000916	0.002747	-0.076904	0.025024	-0.012817	-0.029755	-0.06073	-0.099487	0.005798	-0.073547	0.22201	-0.91019	-0.009613	0.028534	-0.17746	0.10162	-0.070648	-0.031128	0.011597	0.14221	-0.022125	-0.005188	-0.001221	0.35187	-0.002441	-0.059967	0.024567	0.000458	0.008087
12.882	0.023346	-0.056915	0.1091	0.005493	0.0354	0.043488	-0.011139	0.003052	0.015106	-0.042725	-0.17334	0.007629	-0.055389	0.11704	-1.2102	-0.005493	0.024414	-0.12344	0.079498	0.014648	-0.012817	0.002289	0.1384	-0.032196	-0.008087	-0.002899	0.46921	-0.005188	-0.059662	-0.028381	0.002594	-0.001373
12.883	0.015411	-0.058289	0.038452	0.003967	0.054626	0.059814	-0.048676	0.015411	0.042114	0.020905	-0.045624	0.004272	-0.097656	-0.10239	-1.1353	-0.014343	0.000458	-0.14572	0.079498	0.083008	-0.020905	-0.020905	0.14832	-0.041046	-0.031891	0.000153	0.70358	-0.003204	-0.044403	-0.13138	0.00061	-0.005341
12.884	0.011597	-0.017395	0.001373	0.000153	0.057983	0.15732	0.009308	0.021057	-0.003357	0.028687	0.11139	0.00824	0.27557	-0.17395	-0.55924	-0.007782	-0.016785	-0.092316	0.11643	0.1355	-0.037689	-0.009308	0.15228	-0.077362	-0.027466	-0.00061	0.50247	-0.00946	-0.29129	-0.10666	-0.000153	-0.003204
12.885	0.003815	-0.00946	-0.017548	0.013885	0.053711	0.20401	0.044861	0.025482	-0.023346	-0.019226	0.099182	0.006866	0.60104	-0.10437	-0.097809	-0.019836	-0.031433	-0.093842	0.1059	0.17838	-0.05661	0.015564	0.10422	-0.019379	-0.000763	0.00061	0.37384	-0.002594	-0.37918	-0.11459	0.001221	-0.011139
12.886	0.007782	-0.002594	0.080261	0.018921	0.037994	0.26504	0.023041	0.024719	-0.002289	0.025635	0.000916	0.005493	0.25345	-0.090027	-0.071411	-0.016785	-0.042419	-0.10254	0.052032	0.13809	-0.050201	0.017242	0.075378	0.023041	0.002136	-0.013123	0.1712	-0.003967	-0.17395	-0.069733	0.001678	-0.006104
12.887	0.012665	-0.058746	0.10651	0.013275	0.040436	0.21088	0.033722	0.012817	-0.028381	0.030212	-0.17609	0.007477	0.03479	0.028839	0.062256	0.001831	-0.023041	-0.092468	0.058441	0.12283	-0.017548	0.009308	0.088959	-0.005646	-0.009155	-0.003967	0.19806	-0.004578	0.10117	-0.084839	0.000763	-0.008698
12.888	0.009003	-0.060272	-0.005188	-0.006104	0.046082	0.27084	0.062714	-0.004272	0.000458	0.04425	-0.16235	0.004425	-0.28824	0.054932	-0.19775	-0.007477	0.000763	-0.13611	0.10086	0.059967	0.003662	0.00824	0.067444	-0.034637	-0.001373	0.000763	0.43747	0.007629	0.20187	-0.21866	0.00061	-0.004272
12.889	0.004883	-0.046387	-0.024872	-0.026245	0.046539	0.1506	0.11566	-0.02655	-0.01709	0.048828	-0.11078	0.003662	-0.49927	-0.009918	-0.032349	0.005188	0.012817	-0.084381	0.15243	0.086212	-0.054321	0.002136	0.062103	-0.027466	0.009003	-0.001221	0.56	-0.007629	0.13443	-0.12817	-0.000916	-0.008392
12.89	0.003967	-0.076904	0.095367	-0.020294	0.033264	-0.031586	0.20401	-0.023651	-0.000458	-0.02655	-0.079041	0.007477	0.30518	0.13138	0.42084	0.017395	0.023651	-0.059967	0.1265	-0.040131	-0.088959	0.014648	0.054474	-0.035248	-0.007019	0.001984	0.10819	-0.00351	0.036163	0.010834	0.000916	-0.000458
12.891	0.001831	-0.053406	0.056305	-0.012207	0.029297	0.001373	0.20218	-0.02121	0.015869	-0.14511	-0.2359	0.010071	0.082245	0.13031	0.5217	0.018921	0.03418	-0.11917	0.08667	-0.15595	-0.073853	0.003662	0.087738	-0.031281	-0.014038	-0.002136	-0.037689	-0.008698	0.075378	0.028992	-0.000153	-0.00351
12.892	-0.001984	-0.081329	0.029297	0.016632	0.018005	0.14145	0.20584	-0.003052	0.049286	-0.079346	-0.2829	-0.005951	0.33066	-0.16785	0.37155	-0.002136	0.021667	-0.073547	0.36392	-0.2832	-0.07843	0.007935	0.12878	-0.055237	-0.019836	-0.010681	-0.80933	0.005493	0.082092	0.075073	0.001831	-0.003815
12.893	-0.002136	-0.022888	-0.029602	0.036469	0.028687	0.14252	0.10666	0.015259	0.091705	-0.045929	-0.25726	0.001526	0.33234	-0.12711	0.16144	-0.005188	0.007629	-0.027924	0.43243	-0.16098	-0.079498	0.016937	0.12894	-0.033417	-0.01236	-0.016632	-0.78598	-0.004578	0.010834	0.080566	0.001221	-0.005035
12.894	-0.001221	-0.038147	-0.047607	0.004883	0.023193	-0.13275	-0.014648	0.032349	0.098267	-0.002289	-0.007172	0.016327	-0.054169	-0.17822	0.42694	-0.020142	-0.009155	-0.103	0.29465	0.23148	-0.089569	0.027618	0.086365	-0.057068	-0.004578	-0.013275	-0.22263	-0.004425	-0.11917	-0.015717	0.000763	-0.00351
12.895	0.002136	-0.097504	-0.034027	-0.015869	0.025177	-0.37308	-0.077362	0.033569	0.12711	0.054321	0.18478	0.002136	-0.46555	-0.21668	-0.20157	-0.002441	-0.011292	-0.091705	0.15778	0.26001	0.028839	0.000153	-0.001526	-0.03952	0.009003	0.003815	0.10162	-0.001526	-0.063477	-0.18494	0.001984	-0.002289
12.896	0.012207	-0.096588	-0.074463	-0.026245	-0.003967	-0.47653	-0.04364	0.021973	0.15915	0.033417	0.11505	0.009918	0.13748	-0.18967	-0.159	0.008545	-0.020752	-0.081635	0.037537	0.19134	0.060577	-0.015106	-0.0737	-0.041809	-0.008087	0.007782	-0.071411	-0.013275	0.050812	-0.25925	0.001526	0.001984
12.897	0.002441	-0.097961	0.068817	-0.006104	-0.046692	-0.31754	0.049896	0.004425	0.10529	0.002289	-0.003357	0.001678	0.24384	-0.31876	-0.10651	0.005646	-0.002289	-0.083771	0.005646	-0.020294	0.014648	-0.001068	-0.098572	-0.059052	-0.001984	0.008087	-0.027313	-0.003815	0.015717	-0.22156	0.003967	0.004578
12.898	-0.00412	-0.08255	0.15976	-0.022583	-0.033569	-0.1535	0.068359	-0.000153	0.042877	-0.061798	-0.026398	0.006714	-0.6778	-0.11643	-0.04303	0.005493	0.004578	-0.062561	0.055084	-0.0383	0.049591	-0.004272	-0.019836	-0.06897	-0.002441	-0.00885	-0.039368	-0.005035	-0.11704	-0.084381	0.00061	-0.002289
12.899	-0.01297	-0.073547	0.080414	0.001068	-0.00946	-0.070343	0.09201	-0.005341	0.0737	-0.00885	-0.06073	0.010071	-0.66101	-0.053101	-0.039368	-0.007782	0.012207	-0.074158	0.13428	0.039825	0.014191	0.02121	-0.00061	-0.12497	-0.002289	-0.013733	-0.18372	-0.005798	-0.096283	-0.00885	0.000458	-0.009918
12.9	-0.011902	-0.049286	0.093994	0.010834	0.034485	-0.085297	0.04776	-0.005341	0.002747	0.041962	-0.11643	-0.000458	-0.18112	-0.19104	0.23377	-0.0177	0.006561	-0.038147	0.20523	0.024414	-0.093842	0.055389	-0.01297	-0.075684	-0.000305	-0.002441	-0.37979	-0.007629	0.19333	-0.15427	0.001831	-0.006561
12.901	-0.001526	-0.074005	-0.046082	-0.013733	0.050507	-0.10239	0.039673	-0.002136	-0.10819	0.029144	-0.075378	0.003662	-0.17136	-0.15076	-0.14633	-0.010071	0.009155	-0.068054	0.15823	0.028992	-0.25497	0.10162	-0.071106	-0.121	0.007935	0.005035	-0.4425	0.001221	0.30395	-0.21393	0.001068	-0.003815
12.902	0.015106	-0.077972	-0.095367	-0.015106	0.051117	-0.1033	-0.010223	0.000305	-0.073242	0.011597	-0.09903	0.006409	-0.17883	-0.061646	-0.19653	-0.002289	0.006866	-0.090942	-0.05661	0.001526	-0.16602	0.009766	-0.09079	-0.076752	0.007477	-0.002594	-0.52033	-0.003967	0.32516	-0.11383	0.001373	-0.003967
12.903	0.00946	-0.027924	-0.10635	0.00061	0.010223	-0.06012	0.014648	0.001831	-0.07782	-0.041504	0.031128	0.003357	-0.011444	0.017242	0.075226	0.000153	0.020599	-0.050964	-0.078735	0.007477	0.040741	0.068665	-0.016174	-0.061493	0.014648	-0.003052	-0.32776	-0.010529	0.43762	-0.079651	0.001984	0.000763
12.904	0.022888	0.013885	-0.014496	0.004883	0.06897	-0.051727	0.11169	-0.000916	-0.048218	-0.023193	0.075684	0.005646	0.089417	-0.059814	0.12192	-0.002594	0.027618	-0.071716	0.14725	0.023956	0.11826	0.054474	0.037994	-0.052338	-0.01297	-0.010681	-0.21973	-0.012817	-0.014191	0.075073	-0.000458	-0.009155
12.905	0.019379	-0.008698	0.15106	-0.005188	0.081482	-0.02182	0.11078	0.006104	-0.045471	0.083923	0.034485	0.005341	0.13153	-0.081329	0.056915	0.005341	0.025177	-0.072632	0.22064	0.041504	0.057678	0.048523	0.000153	-0.055389	0.009613	-0.017853	-0.34515	-0.007172	-0.26932	0.14404	0.000763	-0.002441
12.906	0.008392	0.005493	0.14893	-0.002899	0.068512	0.030518	0.036011	0.016632	-0.066223	0.09903	-0.005646	-0.00061	-0.007782	-0.013885	0.015869	-0.002594	0.019073	-0.097504	0.045166	0.050659	0.025177	0.04303	0.066986	-0.027924	0.007935	-0.015869	-0.33508	-0.006561	-0.22095	0.13519	0.002136	-0.006866
12.907	0.008392	-0.019836	0.1149	-0.016479	0.066681	0.029297	-0.017548	0.021057	-0.013123	0.11292	-0.003052	-0.000763	-0.092316	0.004272	0.062256	-0.001373	-0.007782	-0.049438	0.014191	0.060425	0.002899	0.011902	0.18082	-0.078125	0.022583	-0.007019	-0.15915	-0.00473	-0.06012	0.11841	0.001373	0.000763
12.908	0.006561	-0.046692	0.066833	-0.001221	0.058746	0.079956	0.009308	0.014954	0.1268	0.11307	0.011444	0.002747	-0.080261	-0.030975	0.075378	0.002289	-0.05249	-0.075073	-0.011749	-0.018005	-0.05249	-0.018768	0.14877	-0.015717	0.01358	-0.007172	0.021667	-0.006866	-0.14084	0.15671	0	-0.00473
